<mxfile host="65bd71144e">
    <diagram id="dqudOsXMSFICv_JLVV3p" name="StateVector_Initialization">
        <mxGraphModel dx="785" dy="458" grid="1" gridSize="10" guides="1" tooltips="1" connect="1" arrows="1" fold="1" page="1" pageScale="1" pageWidth="827" pageHeight="1169" math="0" shadow="0">
            <root>
                <mxCell id="0"/>
                <mxCell id="1" parent="0"/>
                <mxCell id="3" value=":AerState" style="shape=umlLifeline;perimeter=lifelinePerimeter;whiteSpace=wrap;html=1;container=1;collapsible=0;recursiveResize=0;outlineConnect=0;fillColor=#dae8fc;strokeColor=#6c8ebf;movable=0;resizable=0;rotatable=0;deletable=0;editable=0;connectable=0;" parent="1" vertex="1">
                    <mxGeometry x="320" y="40" width="100" height="680" as="geometry"/>
                </mxCell>
                <mxCell id="16" value="" style="html=1;points=[];perimeter=orthogonalPerimeter;fillColor=#f5f5f5;fontColor=#333333;strokeColor=#666666;" vertex="1" parent="3">
                    <mxGeometry x="45" y="160" width="10" height="30" as="geometry"/>
                </mxCell>
                <mxCell id="17" value="&amp;lt;&amp;lt;create&amp;gt;&amp;gt;" style="html=1;verticalAlign=bottom;endArrow=block;entryX=0;entryY=0;" edge="1" parent="3">
                    <mxGeometry relative="1" as="geometry">
                        <mxPoint x="-210" y="160" as="sourcePoint"/>
                        <mxPoint x="45" y="160.0000000000001" as="targetPoint"/>
                    </mxGeometry>
                </mxCell>
                <mxCell id="29" value="" style="html=1;points=[];perimeter=orthogonalPerimeter;fillColor=#f5f5f5;fontColor=#333333;strokeColor=#666666;" vertex="1" parent="3">
                    <mxGeometry x="45" y="240" width="10" height="30" as="geometry"/>
                </mxCell>
                <mxCell id="4" value=":AER::AerState" style="shape=umlLifeline;perimeter=lifelinePerimeter;whiteSpace=wrap;html=1;container=1;collapsible=0;recursiveResize=0;outlineConnect=0;fillColor=#dae8fc;strokeColor=#6c8ebf;movable=0;resizable=0;rotatable=0;deletable=0;editable=0;connectable=0;" parent="1" vertex="1">
                    <mxGeometry x="600" y="40" width="100" height="680" as="geometry"/>
                </mxCell>
                <mxCell id="24" value="" style="html=1;points=[];perimeter=orthogonalPerimeter;fillColor=#f5f5f5;fontColor=#333333;strokeColor=#666666;" vertex="1" parent="4">
                    <mxGeometry x="45" y="180" width="10" height="20" as="geometry"/>
                </mxCell>
                <mxCell id="32" value="" style="html=1;points=[];perimeter=orthogonalPerimeter;fillColor=#f5f5f5;fontColor=#333333;strokeColor=#666666;" vertex="1" parent="4">
                    <mxGeometry x="45" y="260" width="10" height="20" as="geometry"/>
                </mxCell>
                <mxCell id="2" value=":AerStateVector" style="shape=umlLifeline;perimeter=lifelinePerimeter;whiteSpace=wrap;html=1;container=1;collapsible=0;recursiveResize=0;outlineConnect=0;fillColor=#dae8fc;strokeColor=#6c8ebf;movable=0;resizable=0;rotatable=0;deletable=0;editable=0;connectable=0;" parent="1" vertex="1">
                    <mxGeometry x="40" y="40" width="100" height="680" as="geometry"/>
                </mxCell>
                <mxCell id="9" value="" style="html=1;points=[];perimeter=orthogonalPerimeter;fillColor=#f5f5f5;fontColor=#333333;strokeColor=#666666;" vertex="1" parent="2">
                    <mxGeometry x="45" y="60" width="10" height="600" as="geometry"/>
                </mxCell>
                <mxCell id="10" value="" style="html=1;points=[];perimeter=orthogonalPerimeter;fillColor=#d5e8d4;strokeColor=#82b366;" vertex="1" parent="2">
                    <mxGeometry x="50" y="100" width="10" height="540" as="geometry"/>
                </mxCell>
                <mxCell id="11" value="__init__" style="edgeStyle=orthogonalEdgeStyle;html=1;align=left;spacingLeft=2;endArrow=block;rounded=0;entryX=1;entryY=0;" edge="1" target="10" parent="2">
                    <mxGeometry relative="1" as="geometry">
                        <mxPoint x="55" y="80" as="sourcePoint"/>
                        <Array as="points">
                            <mxPoint x="85" y="80"/>
                        </Array>
                    </mxGeometry>
                </mxCell>
                <mxCell id="12" value="" style="html=1;points=[];perimeter=orthogonalPerimeter;fillColor=#fff2cc;strokeColor=#d6b656;" vertex="1" parent="2">
                    <mxGeometry x="56" y="140" width="10" height="350" as="geometry"/>
                </mxCell>
                <mxCell id="13" value="_from_ndarray" style="edgeStyle=orthogonalEdgeStyle;html=1;align=left;spacingLeft=2;endArrow=block;rounded=0;entryX=1;entryY=0;" edge="1" target="12" parent="2">
                    <mxGeometry relative="1" as="geometry">
                        <mxPoint x="61" y="120" as="sourcePoint"/>
                        <Array as="points">
                            <mxPoint x="91" y="120"/>
                        </Array>
                    </mxGeometry>
                </mxCell>
                <mxCell id="21" value="_native_state" style="shape=note;whiteSpace=wrap;html=1;backgroundOutline=1;darkOpacity=0.05;size=12;fillColor=#f8cecc;strokeColor=#b85450;" vertex="1" parent="1">
                    <mxGeometry x="390" y="160" width="90" height="40" as="geometry"/>
                </mxCell>
                <mxCell id="22" value="" style="endArrow=none;dashed=1;html=1;dashPattern=1 3;strokeWidth=2;entryX=0.5;entryY=1;entryDx=0;entryDy=0;entryPerimeter=0;" edge="1" parent="1" target="21">
                    <mxGeometry width="50" height="50" relative="1" as="geometry">
                        <mxPoint x="400" y="220" as="sourcePoint"/>
                        <mxPoint x="420" y="160" as="targetPoint"/>
                    </mxGeometry>
                </mxCell>
                <mxCell id="23" value="data: np.ndarray,&lt;br&gt;aer_state" style="shape=note;whiteSpace=wrap;html=1;backgroundOutline=1;darkOpacity=0.05;size=12;fillColor=#f8cecc;strokeColor=#b85450;" vertex="1" parent="1">
                    <mxGeometry x="110" y="542" width="110" height="43" as="geometry"/>
                </mxCell>
                <mxCell id="25" value="&amp;lt;&amp;lt;create&amp;gt;&amp;gt;" style="html=1;verticalAlign=bottom;endArrow=block;entryX=0;entryY=0;" edge="1" target="24" parent="1">
                    <mxGeometry relative="1" as="geometry">
                        <mxPoint x="374" y="220" as="sourcePoint"/>
                    </mxGeometry>
                </mxCell>
                <mxCell id="30" value="configure(config_key, config_value)" style="html=1;verticalAlign=bottom;endArrow=block;entryX=0;entryY=0;" edge="1" target="29" parent="1">
                    <mxGeometry relative="1" as="geometry">
                        <mxPoint x="107" y="280" as="sourcePoint"/>
                    </mxGeometry>
                </mxCell>
                <mxCell id="33" value="configure(key, value)" style="html=1;verticalAlign=bottom;endArrow=block;entryX=0;entryY=0;" edge="1" target="32" parent="1">
                    <mxGeometry relative="1" as="geometry">
                        <mxPoint x="374" y="300" as="sourcePoint"/>
                    </mxGeometry>
                </mxCell>
                <mxCell id="38" value="_STATE.INITIALIZING" style="shape=note;whiteSpace=wrap;html=1;backgroundOutline=1;darkOpacity=0.05;size=12;fillColor=#e1d5e7;strokeColor=#9673a6;" vertex="1" parent="1">
                    <mxGeometry x="383" y="234" width="140" height="40" as="geometry"/>
                </mxCell>
            </root>
        </mxGraphModel>
    </diagram>
    <diagram id="XBzr-M2RMqgCWCsHORJS" name="AerState_state_transition">
        <mxGraphModel dx="785" dy="458" grid="1" gridSize="10" guides="1" tooltips="1" connect="1" arrows="1" fold="1" page="1" pageScale="1" pageWidth="827" pageHeight="1169" math="0" shadow="0">
            <root>
                <mxCell id="FKvRg5avlS0RdfHe7xMF-0"/>
                <mxCell id="FKvRg5avlS0RdfHe7xMF-1" parent="FKvRg5avlS0RdfHe7xMF-0"/>
                <mxCell id="o4FnzVwhx6e5Ym-4PX9w-4" value="INITIALIZING" style="swimlane;fontStyle=1;align=center;verticalAlign=middle;childLayout=stackLayout;horizontal=1;startSize=30;horizontalStack=0;resizeParent=0;resizeLast=1;container=0;fontColor=#000000;collapsible=0;rounded=1;arcSize=30;strokeColor=#ff0000;fillColor=#ffffc0;swimlaneFillColor=#ffffc0;dropTarget=0;" vertex="1" parent="FKvRg5avlS0RdfHe7xMF-1">
                    <mxGeometry x="200" y="40" width="160" height="60" as="geometry"/>
                </mxCell>
                <mxCell id="o4FnzVwhx6e5Ym-4PX9w-6" value="" style="edgeStyle=orthogonalEdgeStyle;html=1;verticalAlign=bottom;endArrow=open;endSize=8;strokeColor=#ff0000;entryX=0.5;entryY=0;entryDx=0;entryDy=0;" edge="1" source="o4FnzVwhx6e5Ym-4PX9w-4" parent="FKvRg5avlS0RdfHe7xMF-1" target="o4FnzVwhx6e5Ym-4PX9w-7">
                    <mxGeometry relative="1" as="geometry">
                        <mxPoint x="310" y="190" as="targetPoint"/>
                        <Array as="points">
                            <mxPoint x="240" y="140"/>
                            <mxPoint x="160" y="140"/>
                        </Array>
                    </mxGeometry>
                </mxCell>
                <mxCell id="o4FnzVwhx6e5Ym-4PX9w-7" value="ALLOCATED" style="swimlane;fontStyle=1;align=center;verticalAlign=middle;childLayout=stackLayout;horizontal=1;startSize=30;horizontalStack=0;resizeParent=0;resizeLast=1;container=0;fontColor=#000000;collapsible=0;rounded=1;arcSize=30;strokeColor=#ff0000;fillColor=#ffffc0;swimlaneFillColor=#ffffc0;dropTarget=0;" vertex="1" parent="FKvRg5avlS0RdfHe7xMF-1">
                    <mxGeometry x="80" y="160" width="160" height="60" as="geometry"/>
                </mxCell>
                <mxCell id="o4FnzVwhx6e5Ym-4PX9w-8" value="MAPPED" style="swimlane;fontStyle=1;align=center;verticalAlign=middle;childLayout=stackLayout;horizontal=1;startSize=30;horizontalStack=0;resizeParent=0;resizeLast=1;container=0;fontColor=#000000;collapsible=0;rounded=1;arcSize=30;strokeColor=#ff0000;fillColor=#ffffc0;swimlaneFillColor=#ffffc0;dropTarget=0;" vertex="1" parent="FKvRg5avlS0RdfHe7xMF-1">
                    <mxGeometry x="320" y="160" width="160" height="60" as="geometry"/>
                </mxCell>
                <mxCell id="o4FnzVwhx6e5Ym-4PX9w-9" value="MOVED" style="swimlane;fontStyle=1;align=center;verticalAlign=middle;childLayout=stackLayout;horizontal=1;startSize=30;horizontalStack=0;resizeParent=0;resizeLast=1;container=0;fontColor=#000000;collapsible=0;rounded=1;arcSize=30;strokeColor=#ff0000;fillColor=#ffffc0;swimlaneFillColor=#ffffc0;dropTarget=0;" vertex="1" parent="FKvRg5avlS0RdfHe7xMF-1">
                    <mxGeometry x="80" y="320" width="160" height="60" as="geometry"/>
                </mxCell>
                <mxCell id="o4FnzVwhx6e5Ym-4PX9w-10" value="CLOSED" style="swimlane;fontStyle=1;align=center;verticalAlign=middle;childLayout=stackLayout;horizontal=1;startSize=30;horizontalStack=0;resizeParent=0;resizeLast=1;container=0;fontColor=#000000;collapsible=0;rounded=1;arcSize=30;strokeColor=#ff0000;fillColor=#ffffc0;swimlaneFillColor=#ffffc0;dropTarget=0;" vertex="1" parent="FKvRg5avlS0RdfHe7xMF-1">
                    <mxGeometry x="320" y="320" width="160" height="60" as="geometry"/>
                </mxCell>
                <mxCell id="o4FnzVwhx6e5Ym-4PX9w-11" value="" style="edgeStyle=orthogonalEdgeStyle;html=1;verticalAlign=bottom;endArrow=open;endSize=8;strokeColor=#ff0000;entryX=0.5;entryY=0;entryDx=0;entryDy=0;exitX=0.75;exitY=1;exitDx=0;exitDy=0;" edge="1" parent="FKvRg5avlS0RdfHe7xMF-1" source="o4FnzVwhx6e5Ym-4PX9w-4" target="o4FnzVwhx6e5Ym-4PX9w-8">
                    <mxGeometry relative="1" as="geometry">
                        <mxPoint x="160" y="190" as="targetPoint"/>
                        <mxPoint x="320" y="140" as="sourcePoint"/>
                        <Array as="points">
                            <mxPoint x="320" y="140"/>
                            <mxPoint x="400" y="140"/>
                        </Array>
                    </mxGeometry>
                </mxCell>
                <mxCell id="o4FnzVwhx6e5Ym-4PX9w-12" value="" style="edgeStyle=orthogonalEdgeStyle;html=1;verticalAlign=bottom;endArrow=open;endSize=8;strokeColor=#ff0000;entryX=0.5;entryY=0;entryDx=0;entryDy=0;exitX=0.5;exitY=1;exitDx=0;exitDy=0;" edge="1" parent="FKvRg5avlS0RdfHe7xMF-1" source="o4FnzVwhx6e5Ym-4PX9w-7" target="o4FnzVwhx6e5Ym-4PX9w-9">
                    <mxGeometry relative="1" as="geometry">
                        <mxPoint x="160" y="190" as="targetPoint"/>
                        <mxPoint x="320" y="140" as="sourcePoint"/>
                    </mxGeometry>
                </mxCell>
                <mxCell id="o4FnzVwhx6e5Ym-4PX9w-13" value="" style="edgeStyle=orthogonalEdgeStyle;html=1;verticalAlign=bottom;endArrow=open;endSize=8;strokeColor=#ff0000;entryX=0;entryY=0.5;entryDx=0;entryDy=0;exitX=1;exitY=0.5;exitDx=0;exitDy=0;" edge="1" parent="FKvRg5avlS0RdfHe7xMF-1" source="o4FnzVwhx6e5Ym-4PX9w-9" target="o4FnzVwhx6e5Ym-4PX9w-10">
                    <mxGeometry relative="1" as="geometry">
                        <mxPoint x="130" y="350" as="targetPoint"/>
                        <mxPoint x="160" y="250" as="sourcePoint"/>
                    </mxGeometry>
                </mxCell>
                <mxCell id="o4FnzVwhx6e5Ym-4PX9w-14" value="" style="edgeStyle=orthogonalEdgeStyle;html=1;verticalAlign=bottom;endArrow=open;endSize=8;strokeColor=#ff0000;entryX=0.5;entryY=0;entryDx=0;entryDy=0;exitX=0.5;exitY=1;exitDx=0;exitDy=0;" edge="1" parent="FKvRg5avlS0RdfHe7xMF-1" source="o4FnzVwhx6e5Ym-4PX9w-8" target="o4FnzVwhx6e5Ym-4PX9w-10">
                    <mxGeometry relative="1" as="geometry">
                        <mxPoint x="330" y="380" as="targetPoint"/>
                        <mxPoint x="170" y="380" as="sourcePoint"/>
                    </mxGeometry>
                </mxCell>
            </root>
        </mxGraphModel>
    </diagram>
</mxfile>
